<svg width="324" height="148" viewBox="0 0 324 148" fill="none" xmlns="http://www.w3.org/2000/svg">
<path fill-rule="evenodd" clip-rule="evenodd" d="M0 73.919V147.838H102.225H204.45V113.598V79.359L264.092 79.297L323.733 79.234V39.679V0.124001L161.867 0.0620003L0 0V73.919ZM315.946 39.72V71.529L232.324 71.364C186.332 71.274 117.025 71.2 78.307 71.2H7.911V39.556V7.912H161.929H315.946V39.72ZM31.78 18.806C25.498 19.767 21.879 23.599 21.879 29.291C21.879 34.35 24.168 37.081 30.705 39.824C36.983 42.457 38.537 44.275 37.549 47.832C36.444 51.812 29.198 52.658 23.915 49.424C23.267 49.027 22.687 48.703 22.627 48.703C22.333 48.703 20.802 54.257 21.022 54.522C22.095 55.814 27.137 57.108 31.1 57.108C45.645 57.108 49.766 41.8 36.863 35.7C29.002 31.983 28.413 31.517 28.393 29.005C28.359 24.569 33.875 23.033 39.915 25.798C40.909 26.253 41.34 26.35 41.419 26.136C41.994 24.584 43.017 21.346 43.017 21.078C43.017 19.729 35.578 18.225 31.78 18.806ZM157.118 18.804C146.366 20.467 140.078 31.109 142.61 43.36C146.392 61.668 171.049 62.057 175.77 43.882C179.49 29.562 170.006 16.811 157.118 18.804ZM219.036 19.303C218.153 19.415 217.068 19.573 216.626 19.654L215.822 19.801V38.207V56.614H219.16H222.497V49.725V42.835L225.649 42.702C234.619 42.323 239.567 38.004 239.59 30.532C239.618 21.603 232.323 17.618 219.036 19.303ZM80.099 22.127V24.97H85.415H90.73V40.792V56.614H94.067H97.405V40.792V24.97H102.843H108.282V22.127V19.284H94.191H80.099V22.127ZM281.489 27.875C279.883 32.6 277.03 40.999 275.147 46.54L271.725 56.614H275.154H278.583L280.403 51.113L282.222 45.613L287.814 45.546L293.405 45.48L295.24 50.985L297.074 56.49L300.577 56.559C302.503 56.597 304.08 56.565 304.08 56.488C304.08 56.411 301.243 48.055 297.776 37.917C294.308 27.78 291.471 19.441 291.471 19.385C291.471 19.329 289.882 19.284 287.94 19.284H284.408L281.489 27.875ZM163.505 25.336C171.564 29.414 171.644 46.482 163.622 50.495C154.3 55.159 145.884 43.789 149.911 31.971C152.1 25.546 158.116 22.609 163.505 25.336ZM227.657 24.735C232.004 25.44 234.026 28.582 232.785 32.705C231.893 35.668 229.27 37.084 224.67 37.084H222.497V30.918V24.752L223.424 24.655C225.235 24.466 226.101 24.482 227.657 24.735ZM289.745 33.932C290.762 36.957 291.63 39.571 291.675 39.741C291.736 39.979 290.863 40.05 287.905 40.05C285.787 40.05 284.049 39.967 284.042 39.865C284.018 39.536 287.635 28.441 287.767 28.436C287.838 28.433 288.727 30.906 289.745 33.932ZM196.726 109.704L196.663 140.05L102.287 140.112L7.911 140.174V109.766V79.358H102.35H196.789L196.726 109.704ZM150.433 90.402C150.025 90.452 148.941 90.612 148.023 90.758L146.354 91.022V109.267C146.354 125.16 146.401 127.531 146.72 127.653C148.908 128.493 158.684 128.269 162.182 127.3C171.433 124.736 173.978 113.791 166.518 108.653L165.16 107.718L166.586 106.331C171.218 101.828 169.969 94.408 164.117 91.663C161.482 90.426 155.029 89.832 150.433 90.402ZM22.745 109.148V127.813H33.622H44.5V124.973V122.134L36.898 122.069L29.296 122.003L29.232 106.243L29.169 90.483H25.957H22.745V109.148ZM86.356 101.546C84.293 107.631 81.436 116.03 80.009 120.211L77.413 127.813H80.837H84.261L86.094 122.312L87.928 116.812L93.5 116.745L99.072 116.679L100 119.341C100.51 120.805 101.368 123.31 101.907 124.908L102.887 127.813H106.326C108.218 127.813 109.766 127.752 109.766 127.678C109.766 127.555 98.068 93.128 97.4 91.286L97.109 90.483H93.608H90.108L86.356 101.546ZM160.322 96.417C164.123 98.316 163.508 103.484 159.311 104.914C158.523 105.183 157.287 105.316 155.581 105.316H153.029V100.47V95.624L156.057 95.711C158.687 95.787 159.248 95.88 160.322 96.417ZM97.405 111.057C97.405 111.163 95.68 111.249 93.573 111.249C90.673 111.249 89.741 111.174 89.741 110.94C89.741 110.77 90.528 108.239 91.491 105.316C92.454 102.393 93.291 99.845 93.351 99.655C93.445 99.362 97.405 110.502 97.405 111.057ZM159.207 111.273C162.237 111.925 163.783 113.741 163.783 116.647C163.783 120.72 161.644 122.332 155.934 122.564L153.029 122.682V116.683V110.684L155.561 110.858C156.954 110.954 158.594 111.141 159.207 111.273Z" fill="black"/>
</svg>
